# xmcd
#
# Track frame offsets:
#	150
#	14337
#	25747
#	42810
#	56467
#	70032
#	83940
#	95810
#	110142
#	121237
#
# Disc length: 1835
#
# Revision: 1
# Processed by: cddbd v1.5.1PL0 Copyright (c) Steve Scherf et al.
# Submitted via: dBpowerAMP V4.0
# Normalized: r0:TDELIM( - )
#
DISCID=7e07290a
DTITLE=Various Artist - Country Love
DYEAR=1900
DGENRE=Country
TTITLE0=Lorrie Morgan - Someday We'll Be Together
TTITLE1=Patti Loveless - Timber I'm Fallinf In Love
TTITLE2=Conway Twitty - Crazy In Love
TTITLE3=Nicolette Larson - Only Love Will Make It Right
TTITLE4=Tanya Tucker - Here's Some Love
TTITLE5=Lee Greenwood - Don't Underestimate My Love For You
TTITLE6=John Anderson - Just For You
TTITLE7=Mark Collie - Born To Love You
TTITLE8=Marty Stuart - Till I Found You
TTITLE9=Steve Wariner - Baby I'm Yours
EXTD=
EXTT0=
EXTT1=
EXTT2=
EXTT3=
EXTT4=
EXTT5=
EXTT6=
EXTT7=
EXTT8=
EXTT9=
PLAYORDER=
